# MagicaVoxel @ Ephtracy

# group
g Player

# material
mtllib Player.mtl
usemtl palette

# normals
vn -1 0 0
vn 1 0 0
vn 0 0 1
vn 0 0 -1
vn 0 -1 0
vn 0 1 0

# texcoords
vt 0.970703 0.5
vt 0.974609 0.5
vt 0.978516 0.5
vt 0.982422 0.5
vt 0.986328 0.5

# verts
v -5.5 7 0.5
v -5.5 7 -0.5
v -5.5 8 0.5
v -5.5 8 -0.5
v -3.5 9 2.5
v -3.5 9 -2.5
v -3.5 16 2.5
v -3.5 16 -2.5
v -1.5 0 0.5
v -1.5 0 -0.5
v -1.5 1 0.5
v -1.5 1 -0.5
v -1.5 4 1.5
v -1.5 4 0.5
v -1.5 4 -0.5
v -1.5 4 -1.5
v -1.5 7 0.5
v -1.5 7 -0.5
v -1.5 8 1.5
v -1.5 8 0.5
v -1.5 8 -0.5
v -1.5 8 -1.5
v -0.5 8 0.5
v -0.5 8 -1.5
v -0.5 9 0.5
v -0.5 9 -1.5
v -0.5 12 2.5
v -0.5 12 1.5
v -0.5 13 2.5
v -0.5 13 1.5
v 0.5 0 0.5
v 0.5 0 -0.5
v 0.5 1 0.5
v 0.5 1 -0.5
v 0.5 4 0.5
v 0.5 4 -0.5
v 2.5 10 2.5
v 2.5 10 1.5
v 2.5 13 1.5
v 2.5 14 2.5
v 2.5 14 1.5
v -2.5 10 2.5
v -2.5 10 1.5
v -2.5 13 1.5
v -2.5 14 2.5
v -2.5 14 1.5
v -0.5 0 0.5
v -0.5 0 -0.5
v -0.5 1 0.5
v -0.5 1 -0.5
v -0.5 4 0.5
v -0.5 4 -0.5
v 0.5 8 0.5
v 0.5 8 -1.5
v 0.5 9 0.5
v 0.5 9 -1.5
v 0.5 12 2.5
v 0.5 12 1.5
v 0.5 13 2.5
v 0.5 13 1.5
v 1.5 0 0.5
v 1.5 0 -0.5
v 1.5 1 0.5
v 1.5 1 -0.5
v 1.5 4 1.5
v 1.5 4 0.5
v 1.5 4 -0.5
v 1.5 4 -1.5
v 1.5 7 0.5
v 1.5 7 -0.5
v 1.5 8 1.5
v 1.5 8 0.5
v 1.5 8 -0.5
v 1.5 8 -1.5
v 3.5 9 2.5
v 3.5 9 -2.5
v 3.5 16 2.5
v 3.5 16 -2.5
v 5.5 7 0.5
v 5.5 7 -0.5
v 5.5 8 0.5
v 5.5 8 -0.5
v -3.5 9 2.5
v -3.5 16 2.5
v -2.5 10 2.5
v -2.5 14 2.5
v -0.5 12 2.5
v -0.5 13 2.5
v 0.5 12 2.5
v 0.5 13 2.5
v 2.5 10 2.5
v 2.5 14 2.5
v 3.5 9 2.5
v 3.5 16 2.5
v -2.5 10 1.5
v -2.5 13 1.5
v -2.5 14 1.5
v -1.5 4 1.5
v -1.5 8 1.5
v -1.5 10 1.5
v -1.5 11 1.5
v -1.5 13 1.5
v -1.5 14 1.5
v -0.5 12 1.5
v -0.5 13 1.5
v -0.5 14 1.5
v 0.5 12 1.5
v 0.5 13 1.5
v 0.5 14 1.5
v 1.5 4 1.5
v 1.5 8 1.5
v 1.5 10 1.5
v 1.5 11 1.5
v 1.5 13 1.5
v 1.5 14 1.5
v 2.5 10 1.5
v 2.5 13 1.5
v 2.5 14 1.5
v -5.5 7 0.5
v -5.5 8 0.5
v -4.5 7 0.5
v -4.5 8 0.5
v -1.5 0 0.5
v -1.5 1 0.5
v -1.5 4 0.5
v -1.5 7 0.5
v -1.5 8 0.5
v -0.5 0 0.5
v -0.5 1 0.5
v -0.5 4 0.5
v -0.5 8 0.5
v -0.5 9 0.5
v 0.5 0 0.5
v 0.5 1 0.5
v 0.5 4 0.5
v 0.5 8 0.5
v 0.5 9 0.5
v 1.5 0 0.5
v 1.5 1 0.5
v 1.5 4 0.5
v 1.5 7 0.5
v 1.5 8 0.5
v 4.5 7 0.5
v 4.5 8 0.5
v 5.5 7 0.5
v 5.5 8 0.5
v -5.5 7 -0.5
v -5.5 8 -0.5
v -4.5 7 -0.5
v -4.5 8 -0.5
v -1.5 0 -0.5
v -1.5 1 -0.5
v -1.5 4 -0.5
v -1.5 7 -0.5
v -1.5 8 -0.5
v -0.5 0 -0.5
v -0.5 1 -0.5
v -0.5 4 -0.5
v 0.5 0 -0.5
v 0.5 1 -0.5
v 0.5 4 -0.5
v 1.5 0 -0.5
v 1.5 1 -0.5
v 1.5 4 -0.5
v 1.5 7 -0.5
v 1.5 8 -0.5
v 4.5 7 -0.5
v 4.5 8 -0.5
v 5.5 7 -0.5
v 5.5 8 -0.5
v -1.5 4 -1.5
v -1.5 8 -1.5
v -0.5 8 -1.5
v -0.5 9 -1.5
v 0.5 8 -1.5
v 0.5 9 -1.5
v 1.5 4 -1.5
v 1.5 8 -1.5
v -3.5 9 -2.5
v -3.5 16 -2.5
v 3.5 9 -2.5
v 3.5 16 -2.5
v -1.5 0 0.5
v -0.5 0 0.5
v 0.5 0 0.5
v 1.5 0 0.5
v -1.5 0 -0.5
v -0.5 0 -0.5
v 0.5 0 -0.5
v 1.5 0 -0.5
v -1.5 4 1.5
v 1.5 4 1.5
v -1.5 4 0.5
v -0.5 4 0.5
v 0.5 4 0.5
v 1.5 4 0.5
v -1.5 4 -0.5
v -0.5 4 -0.5
v 0.5 4 -0.5
v 1.5 4 -0.5
v -1.5 4 -1.5
v 1.5 4 -1.5
v -5.5 7 0.5
v -4.5 7 0.5
v -1.5 7 0.5
v 1.5 7 0.5
v 4.5 7 0.5
v 5.5 7 0.5
v -5.5 7 -0.5
v -4.5 7 -0.5
v -1.5 7 -0.5
v 1.5 7 -0.5
v 4.5 7 -0.5
v 5.5 7 -0.5
v -3.5 9 2.5
v 3.5 9 2.5
v -0.5 9 0.5
v 0.5 9 0.5
v -0.5 9 -1.5
v 0.5 9 -1.5
v -3.5 9 -2.5
v 3.5 9 -2.5
v -0.5 12 2.5
v 0.5 12 2.5
v -0.5 12 1.5
v 0.5 12 1.5
v -2.5 14 2.5
v 2.5 14 2.5
v -2.5 14 1.5
v -1.5 14 1.5
v -0.5 14 1.5
v 0.5 14 1.5
v 1.5 14 1.5
v 2.5 14 1.5
v -1.5 8 1.5
v 1.5 8 1.5
v -5.5 8 0.5
v -4.5 8 0.5
v -1.5 8 0.5
v -0.5 8 0.5
v 0.5 8 0.5
v 1.5 8 0.5
v 4.5 8 0.5
v 5.5 8 0.5
v -5.5 8 -0.5
v -4.5 8 -0.5
v -1.5 8 -0.5
v 1.5 8 -0.5
v 4.5 8 -0.5
v 5.5 8 -0.5
v -1.5 8 -1.5
v -0.5 8 -1.5
v 0.5 8 -1.5
v 1.5 8 -1.5
v -2.5 10 2.5
v 2.5 10 2.5
v -2.5 10 1.5
v -1.5 10 1.5
v 1.5 10 1.5
v 2.5 10 1.5
v -0.5 13 2.5
v 0.5 13 2.5
v -0.5 13 1.5
v 0.5 13 1.5
v -3.5 16 2.5
v 3.5 16 2.5
v -3.5 16 -2.5
v 3.5 16 -2.5

# faces
f 3/4/1 2/4/1 1/4/1
f 4/4/1 2/4/1 3/4/1
f 7/3/1 6/3/1 5/3/1
f 8/3/1 6/3/1 7/3/1
f 11/1/1 10/1/1 9/1/1
f 12/1/1 10/1/1 11/1/1
f 14/2/1 12/2/1 11/2/1
f 15/2/1 12/2/1 14/2/1
f 17/3/1 15/3/1 14/3/1
f 17/3/1 16/3/1 15/3/1
f 17/3/1 14/3/1 13/3/1
f 18/3/1 16/3/1 17/3/1
f 19/3/1 17/3/1 13/3/1
f 20/3/1 17/3/1 19/3/1
f 21/3/1 16/3/1 18/3/1
f 22/3/1 16/3/1 21/3/1
f 25/3/1 24/3/1 23/3/1
f 26/3/1 24/3/1 25/3/1
f 29/4/1 28/4/1 27/4/1
f 30/4/1 28/4/1 29/4/1
f 33/1/1 32/1/1 31/1/1
f 34/1/1 32/1/1 33/1/1
f 35/2/1 34/2/1 33/2/1
f 36/2/1 34/2/1 35/2/1
f 39/3/1 38/3/1 37/3/1
f 40/3/1 39/3/1 37/3/1
f 41/3/1 39/3/1 40/3/1
f 42/3/2 43/3/2 44/3/2
f 42/3/2 44/3/2 45/3/2
f 45/3/2 44/3/2 46/3/2
f 47/1/2 48/1/2 49/1/2
f 49/1/2 48/1/2 50/1/2
f 49/2/2 50/2/2 51/2/2
f 51/2/2 50/2/2 52/2/2
f 53/3/2 54/3/2 55/3/2
f 55/3/2 54/3/2 56/3/2
f 57/4/2 58/4/2 59/4/2
f 59/4/2 58/4/2 60/4/2
f 61/1/2 62/1/2 63/1/2
f 63/1/2 62/1/2 64/1/2
f 63/2/2 64/2/2 66/2/2
f 66/2/2 64/2/2 67/2/2
f 66/3/2 67/3/2 69/3/2
f 67/3/2 68/3/2 69/3/2
f 65/3/2 66/3/2 69/3/2
f 69/3/2 68/3/2 70/3/2
f 65/3/2 69/3/2 71/3/2
f 71/3/2 69/3/2 72/3/2
f 70/3/2 68/3/2 73/3/2
f 73/3/2 68/3/2 74/3/2
f 75/3/2 76/3/2 77/3/2
f 77/3/2 76/3/2 78/3/2
f 79/4/2 80/4/2 81/4/2
f 81/4/2 80/4/2 82/4/2
f 85/3/3 84/3/3 83/3/3
f 86/3/3 84/3/3 85/3/3
f 89/4/3 88/4/3 87/4/3
f 90/4/3 88/4/3 89/4/3
f 91/3/3 85/3/3 83/3/3
f 92/3/3 84/3/3 86/3/3
f 93/3/3 91/3/3 83/3/3
f 93/3/3 92/3/3 91/3/3
f 94/3/3 84/3/3 92/3/3
f 94/3/3 92/3/3 93/3/3
f 100/4/3 96/4/3 95/4/3
f 101/4/3 96/4/3 100/4/3
f 102/5/3 97/5/3 96/5/3
f 102/4/3 96/4/3 101/4/3
f 103/5/3 97/5/3 102/5/3
f 104/4/3 102/4/3 101/4/3
f 105/1/3 103/1/3 102/1/3
f 105/4/3 102/4/3 104/4/3
f 106/1/3 103/1/3 105/1/3
f 107/4/3 104/4/3 101/4/3
f 108/4/3 106/4/3 105/4/3
f 109/4/3 106/4/3 108/4/3
f 110/3/3 99/3/3 98/3/3
f 111/3/3 99/3/3 110/3/3
f 112/1/3 101/1/3 100/1/3
f 113/4/3 107/4/3 101/4/3
f 113/1/3 101/1/3 112/1/3
f 113/4/3 108/4/3 107/4/3
f 114/1/3 109/1/3 108/1/3
f 114/4/3 108/4/3 113/4/3
f 115/1/3 109/1/3 114/1/3
f 116/4/3 113/4/3 112/4/3
f 116/4/3 114/4/3 113/4/3
f 117/5/3 115/5/3 114/5/3
f 117/4/3 114/4/3 116/4/3
f 118/5/3 115/5/3 117/5/3
f 121/4/3 120/4/3 119/4/3
f 122/4/3 120/4/3 121/4/3
f 126/3/3 122/3/3 121/3/3
f 127/3/3 122/3/3 126/3/3
f 128/1/3 124/1/3 123/1/3
f 129/2/3 125/2/3 124/2/3
f 129/1/3 124/1/3 128/1/3
f 130/2/3 125/2/3 129/2/3
f 136/3/3 132/3/3 131/3/3
f 137/3/3 132/3/3 136/3/3
f 138/1/3 134/1/3 133/1/3
f 139/2/3 135/2/3 134/2/3
f 139/1/3 134/1/3 138/1/3
f 140/2/3 135/2/3 139/2/3
f 143/3/3 142/3/3 141/3/3
f 144/3/3 142/3/3 143/3/3
f 145/4/3 144/4/3 143/4/3
f 146/4/3 144/4/3 145/4/3
f 147/4/4 148/4/4 149/4/4
f 149/4/4 148/4/4 150/4/4
f 149/3/4 150/3/4 154/3/4
f 154/3/4 150/3/4 155/3/4
f 151/1/4 152/1/4 156/1/4
f 152/2/4 153/2/4 157/2/4
f 156/1/4 152/1/4 157/1/4
f 157/2/4 153/2/4 158/2/4
f 159/1/4 160/1/4 162/1/4
f 160/2/4 161/2/4 163/2/4
f 162/1/4 160/1/4 163/1/4
f 163/2/4 161/2/4 164/2/4
f 165/3/4 166/3/4 167/3/4
f 167/3/4 166/3/4 168/3/4
f 167/4/4 168/4/4 169/4/4
f 169/4/4 168/4/4 170/4/4
f 171/3/4 172/3/4 173/3/4
f 171/3/4 173/3/4 175/3/4
f 173/3/4 174/3/4 175/3/4
f 175/3/4 174/3/4 176/3/4
f 171/3/4 175/3/4 177/3/4
f 177/3/4 175/3/4 178/3/4
f 179/3/4 180/3/4 181/3/4
f 181/3/4 180/3/4 182/3/4
f 187/1/5 184/1/5 183/1/5
f 188/1/5 184/1/5 187/1/5
f 189/1/5 186/1/5 185/1/5
f 190/1/5 186/1/5 189/1/5
f 193/3/5 192/3/5 191/3/5
f 194/3/5 192/3/5 193/3/5
f 195/3/5 192/3/5 194/3/5
f 196/3/5 192/3/5 195/3/5
f 198/3/5 195/3/5 194/3/5
f 199/3/5 195/3/5 198/3/5
f 201/3/5 198/3/5 197/3/5
f 201/3/5 200/3/5 199/3/5
f 201/3/5 199/3/5 198/3/5
f 202/3/5 200/3/5 201/3/5
f 209/4/5 204/4/5 203/4/5
f 210/3/5 205/3/5 204/3/5
f 210/4/5 204/4/5 209/4/5
f 211/3/5 205/3/5 210/3/5
f 212/3/5 207/3/5 206/3/5
f 213/4/5 208/4/5 207/4/5
f 213/3/5 207/3/5 212/3/5
f 214/4/5 208/4/5 213/4/5
f 217/3/5 216/3/5 215/3/5
f 218/3/5 216/3/5 217/3/5
f 219/3/5 217/3/5 215/3/5
f 220/3/5 216/3/5 218/3/5
f 221/3/5 219/3/5 215/3/5
f 221/3/5 220/3/5 219/3/5
f 222/3/5 216/3/5 220/3/5
f 222/3/5 220/3/5 221/3/5
f 225/4/5 224/4/5 223/4/5
f 226/4/5 224/4/5 225/4/5
f 229/3/5 228/3/5 227/3/5
f 230/3/5 228/3/5 229/3/5
f 231/3/5 228/3/5 230/3/5
f 232/3/5 228/3/5 231/3/5
f 233/3/5 228/3/5 232/3/5
f 234/3/5 228/3/5 233/3/5
f 235/3/6 236/3/6 239/3/6
f 239/3/6 236/3/6 240/3/6
f 240/3/6 236/3/6 241/3/6
f 241/3/6 236/3/6 242/3/6
f 237/4/6 238/4/6 245/4/6
f 238/3/6 239/3/6 246/3/6
f 245/4/6 238/4/6 246/4/6
f 239/3/6 240/3/6 246/3/6
f 246/3/6 240/3/6 247/3/6
f 241/3/6 242/3/6 248/3/6
f 242/3/6 243/3/6 248/3/6
f 243/4/6 244/4/6 249/4/6
f 248/3/6 243/3/6 249/3/6
f 249/4/6 244/4/6 250/4/6
f 247/3/6 240/3/6 251/3/6
f 251/3/6 240/3/6 252/3/6
f 241/3/6 248/3/6 253/3/6
f 253/3/6 248/3/6 254/3/6
f 255/3/6 256/3/6 257/3/6
f 257/3/6 256/3/6 258/3/6
f 258/3/6 256/3/6 259/3/6
f 259/3/6 256/3/6 260/3/6
f 261/4/6 262/4/6 263/4/6
f 263/4/6 262/4/6 264/4/6
f 265/3/6 266/3/6 267/3/6
f 267/3/6 266/3/6 268/3/6
